<svg xmlns="http://www.w3.org/2000/svg" viewBox="0 0 64 64">
  <defs>
    <linearGradient id="g" x1="0" y1="0" x2="1" y2="1">
      <stop offset="0" stop-color="#22754f"/>
      <stop offset="1" stop-color="#8fd14f"/>
    </linearGradient>
  </defs>
  <rect width="64" height="64" rx="16" fill="url(#g)"/>
  <path fill="#fff" d="M44 16c0 16-8 28-22 30 0-4 1-7 3-10-3 1-6 1-9 0 4-1 7-3 9-6-6 1-11-1-15-6 8 1 13-1 16-5-4 0-8-2-11-6 14-2 24 2 29 9z"/>
  <path fill="none" stroke="#22754f" stroke-width="2" stroke-linecap="round" d="M40 20c-7 6-13 14-18 26"/>
</svg>
